# xmcd CD database file
#
# Track frame offsets:
#	150
#	17252
#	32852
#	41017
#	43622
#	55137
#	66530
#	72367
#	98425
#	109852
#	115005
#	127887
#	145095
#	152700
#	174430
#	190115
#	203930
#	209567
#	231587
#	241455
#	257800
#
# Disc length: 3443 seconds
#
# Revision: 0
# Processed by: cddbd v1.5.2PL0 Copyright (c) Steve Scherf et al.
# Submitted via: CDex 1.51
#
DISCID=2d0d7115
DTITLE=Marian McPortland with Guest Dick Hyman - Piano Jazz
DYEAR=1990
DGENRE=Jazz
TTITLE0=Converstion
TTITLE1=Carousel Memories
TTITLE2=Conversation
TTITLE3=Re-lax
TTITLE4=Conversation
TTITLE5=Handful of Keys
TTITLE6=Conversation
TTITLE7=Gone With The Wind
TTITLE8=Conversation
TTITLE9=Body and Soul
TTITLE10=Conversation
TTITLE11=A Flower is a Lovesome Thing
TTITLE12=Conversation
TTITLE13=This time the dream's on me
TTITLE14=Conversation
TTITLE15=Delicate Balance
TTITLE16=Conversation
TTITLE17=Skylark
TTITLE18=Conversation
TTITLE19=Lower come bact to me
TTITLE20=Conversation
EXTD=YEAR: 1990
EXTT0=
EXTT1=
EXTT2=
EXTT3=
EXTT4=
EXTT5=
EXTT6=
EXTT7=
EXTT8=
EXTT9=
EXTT10=
EXTT11=
EXTT12=
EXTT13=
EXTT14=
EXTT15=
EXTT16=
EXTT17=
EXTT18=
EXTT19=
EXTT20=
PLAYORDER=
